<svg width="680.6624755859375px" height="192.80498046875px" xmlns="http://www.w3.org/2000/svg" viewBox="-90.33123779296875 -21.402490234374994 680.6624755859375 192.80498046875" style="background: none;" preserveAspectRatio="xMidYMid"><defs><filter id="editing-jagged" x="-100%" y="-100%" width="300%" height="300%"><feTurbulence result="turb" baseFrequency="0.2" numOctaves="1" seed="1"></feTurbulence><feDisplacementMap in="SourceGraphic" in2="turb" scale="10"></feDisplacementMap></filter></defs><g filter="url(#editing-jagged)"><g transform="translate(7.494997978210449, 120.79999923706055)" ><path d="M76.07-63.62L76.07 0L63.38 0L63.38-17.19L18.75-17.19L18.75 0L6.05 0L6.05-35.01L6.05-35.01Q6.05-42.68 8.69-49.12L8.69-49.12L8.69-49.12Q11.33-55.57 16.02-60.21L16.02-60.21L16.02-60.21Q20.70-64.84 27.10-67.43L27.10-67.43L27.10-67.43Q33.50-70.02 41.06-70.02L41.06-70.02L69.68-70.02L69.68-70.02Q71.00-70.02 72.17-69.53L72.17-69.53L72.17-69.53Q73.34-69.04 74.22-68.16L74.22-68.16L74.22-68.16Q75.10-67.29 75.59-66.11L75.59-66.11L75.59-66.11Q76.07-64.94 76.07-63.62L76.07-63.62ZM18.75-35.01L18.75-29.88L63.38-29.88L63.38-57.32L41.06-57.32L41.06-57.32Q40.48-57.32 38.60-57.15L38.60-57.15L38.60-57.15Q36.72-56.98 34.25-56.30L34.25-56.30L34.25-56.30Q31.79-55.62 29.05-54.20L29.05-54.20L29.05-54.20Q26.32-52.78 24.02-50.29L24.02-50.29L24.02-50.29Q21.73-47.80 20.24-44.07L20.24-44.07L20.24-44.07Q18.75-40.33 18.75-35.01L18.75-35.01ZM148.10-35.01L148.10 0L135.40 0L135.40-35.01L135.40-35.01Q135.40-37.50 134.13-38.79L134.13-38.79L134.13-38.79Q132.86-40.09 130.32-40.09L130.32-40.09L107.42-40.09L107.42-52.78L130.32-52.78L130.32-52.78Q132.13-52.78 134.13-52.37L134.13-52.37L134.13-52.37Q136.13-51.95 138.11-51.07L138.11-51.07L138.11-51.07Q140.09-50.20 141.89-48.80L141.89-48.80L141.89-48.80Q143.70-47.41 145.07-45.43L145.07-45.43L145.07-45.43Q146.44-43.46 147.27-40.87L147.27-40.87L147.27-40.87Q148.10-38.28 148.10-35.01L148.10-35.01ZM102.29-75.10L102.29 0L89.60 0L89.60-75.10L102.29-75.10ZM214.21-35.30L214.21-17.48L214.21-17.48Q214.21-14.84 213.28-11.79L213.28-11.79L213.28-11.79Q212.35-8.74 210.28-6.13L210.28-6.13L210.28-6.13Q208.20-3.52 204.86-1.76L204.86-1.76L204.86-1.76Q201.51 0 196.73 0L196.73 0L173.83 0L173.83 0Q171.19 0 168.14-0.93L168.14-0.93L168.14-0.93Q165.09-1.86 162.48-3.93L162.48-3.93L162.48-3.93Q159.86-6.01 158.11-9.35L158.11-9.35L158.11-9.35Q156.35-12.70 156.35-17.48L156.35-17.48L156.35-17.48Q156.35-20.12 157.28-23.19L157.28-23.19L157.28-23.19Q158.20-26.27 160.28-28.88L160.28-28.88L160.28-28.88Q162.35-31.49 165.70-33.25L165.70-33.25L165.70-33.25Q169.04-35.01 173.83-35.01L173.83-35.01L196.73-35.01L196.73-22.90L173.83-22.90L173.83-22.90Q171.24-22.90 169.82-21.31L169.82-21.31L169.82-21.31Q168.41-19.73 168.41-17.38L168.41-17.38L168.41-17.38Q168.41-14.89 170.04-13.50L170.04-13.50L170.04-13.50Q171.68-12.11 173.93-12.11L173.93-12.11L196.73-12.11L196.73-12.11Q199.32-12.11 200.73-13.67L200.73-13.67L200.73-13.67Q202.15-15.23 202.15-17.58L202.15-17.58L202.15-35.30L202.15-35.30Q202.15-37.79 200.61-39.26L200.61-39.26L200.61-39.26Q199.07-40.72 196.73-40.72L196.73-40.72L168.85-40.72L168.85-52.78L196.73-52.78L196.73-52.78Q199.37-52.78 202.42-51.86L202.42-51.86L202.42-51.86Q205.47-50.93 208.08-48.85L208.08-48.85L208.08-48.85Q210.69-46.78 212.45-43.43L212.45-43.43L212.45-43.43Q214.21-40.09 214.21-35.30L214.21-35.30ZM282.76-52.78L282.76-6.40L282.76-6.40Q282.76-5.03 282.28-3.86L282.28-3.86L282.28-3.86Q281.79-2.69 280.93-1.83L280.93-1.83L280.93-1.83Q280.08-0.98 278.93-0.49L278.93-0.49L278.93-0.49Q277.78 0 276.46 0L276.46 0L247.75 0L247.75 0Q245.41 0 242.75-0.54L242.75-0.54L242.75-0.54Q240.09-1.07 237.50-2.27L237.50-2.27L237.50-2.27Q234.91-3.47 232.50-5.30L232.50-5.30L232.50-5.30Q230.08-7.13 228.27-9.74L228.27-9.74L228.27-9.74Q226.46-12.35 225.37-15.77L225.37-15.77L225.37-15.77Q224.27-19.19 224.27-23.49L224.27-23.49L224.27-52.78L236.96-52.78L236.96-23.49L236.96-23.49Q236.96-21.00 237.82-19.02L237.82-19.02L237.82-19.02Q238.67-17.04 240.14-15.63L240.14-15.63L240.14-15.63Q241.60-14.21 243.58-13.45L243.58-13.45L243.58-13.45Q245.56-12.70 247.85-12.70L247.85-12.70L270.07-12.70L270.07-52.78L282.76-52.78ZM352.88-35.01L352.88-17.82L352.88-17.82Q352.88-14.55 352.05-11.94L352.05-11.94L352.05-11.94Q351.22-9.33 349.85-7.35L349.85-7.35L349.85-7.35Q348.49-5.37 346.68-3.98L346.68-3.98L346.68-3.98Q344.87-2.59 342.90-1.71L342.90-1.71L342.90-1.71Q340.92-0.83 338.92-0.42L338.92-0.42L338.92-0.42Q336.91 0 335.11 0L335.11 0L312.21 0L312.21-12.70L335.11-12.70L335.11-12.70Q337.65-12.70 338.92-14.01L338.92-14.01L338.92-14.01Q340.19-15.33 340.19-17.82L340.19-17.82L340.19-34.91L340.19-34.91Q340.19-37.55 338.89-38.82L338.89-38.82L338.89-38.82Q337.60-40.09 335.11-40.09L335.11-40.09L312.30-40.09L312.30-40.09Q309.72-40.09 308.40-38.79L308.40-38.79L308.40-38.79Q307.08-37.50 307.08-35.01L307.08-35.01L307.08 16.50L294.38 16.50L294.38-35.01L294.38-35.01Q294.38-38.28 295.21-40.87L295.21-40.87L295.21-40.87Q296.04-43.46 297.44-45.43L297.44-45.43L297.44-45.43Q298.83-47.41 300.63-48.80L300.63-48.80L300.63-48.80Q302.44-50.20 304.42-51.07L304.42-51.07L304.42-51.07Q306.40-51.95 308.42-52.37L308.42-52.37L308.42-52.37Q310.45-52.78 312.21-52.78L312.21-52.78L335.11-52.78L335.11-52.78Q338.38-52.78 340.97-51.95L340.97-51.95L340.97-51.95Q343.55-51.12 345.53-49.76L345.53-49.76L345.53-49.76Q347.51-48.39 348.90-46.58L348.90-46.58L348.90-46.58Q350.29-44.78 351.17-42.80L351.17-42.80L351.17-42.80Q352.05-40.82 352.47-38.82L352.47-38.82L352.47-38.82Q352.88-36.82 352.88-35.01L352.88-35.01ZM411.47-52.78L411.47-40.09L389.31-40.09L389.31 0L376.46 0L376.46-40.09L359.96-40.09L359.96-52.78L376.46-52.78L376.46-70.02L389.31-70.02L389.31-52.78L411.47-52.78ZM478.96-52.20L478.96-17.82L478.96-17.82Q478.96-12.89 477.17-9.50L477.17-9.50L477.17-9.50Q475.39-6.10 472.73-3.98L472.73-3.98L472.73-3.98Q470.07-1.86 466.94-0.93L466.94-0.93L466.94-0.93Q463.82 0 461.13 0L461.13 0L420.41 0L420.41-12.70L461.13-12.70L461.13-12.70Q463.72-12.70 464.97-14.01L464.97-14.01L464.97-14.01Q466.21-15.33 466.21-17.82L466.21-17.82L466.21-28.61L420.41-28.61L420.41-41.41L466.21-41.41L466.21-52.10L466.21-52.10Q466.21-57.32 461.13-57.32L461.13-57.32L420.41-57.32L420.41-70.02L461.13-70.02L461.13-70.02Q464.40-70.02 466.99-69.19L466.99-69.19L466.99-69.19Q469.58-68.36 471.56-66.97L471.56-66.97L471.56-66.97Q473.54-65.58 474.95-63.77L474.95-63.77L474.95-63.77Q476.37-61.96 477.25-59.99L477.25-59.99L477.25-59.99Q478.13-58.01 478.54-55.98L478.54-55.98L478.54-55.98Q478.96-53.96 478.96-52.20L478.96-52.20Z" fill="#000000"></path></g></g><style>text {
  font-size: 64px;
  font-family: Arial Black;
  dominant-baseline: central;
  text-anchor: middle;
}</style></svg>